<svg xmlns="http://www.w3.org/2000/svg" xmlns:xlink="http://www.w3.org/1999/xlink" viewBox="0,0,256,256" width="24px" height="24px" fill-rule="nonzero"><g fill="#d97e75" fill-rule="nonzero" stroke="none" stroke-width="1" stroke-linecap="butt" stroke-linejoin="miter" stroke-miterlimit="10" stroke-dasharray="" stroke-dashoffset="0" font-family="none" font-weight="none" font-size="none" text-anchor="none" style="mix-blend-mode: normal"><g transform="scale(10.66667,10.66667)"><path d="M12,1.5c-0.17538,0 -0.35131,0.04617 -0.50781,0.13867l-9.5,5.58789c-0.476,0.28 -0.63352,0.89314 -0.35352,1.36914c0.279,0.474 0.88733,0.63242 1.36133,0.35742v11.04688c0,0.552 0.448,1 1,1h4v-9c0,-0.552 0.448,-1 1,-1h6c0.552,0 1,0.448 1,1v9h4c0.552,0 1,-0.448 1,-1v-11.04687c0.157,0.091 0.32805,0.13477 0.49805,0.13477c0.343,0 0.67728,-0.17519 0.86328,-0.49219c0.28,-0.476 0.12249,-1.09014 -0.35352,-1.36914l-9.5,-5.58789c-0.156,-0.0925 -0.33244,-0.13867 -0.50781,-0.13867zM10,13v8h4v-8z"></path></g></g></svg>